<svg width="25" height="32" viewBox="0 0 25 32" fill="none" xmlns="http://www.w3.org/2000/svg">
<path fill-rule="evenodd" clip-rule="evenodd" d="M23.1264 12.4542C23.9022 13.5154 24.4091 14.7864 24.5948 16.1365C24.7375 17.1593 24.6916 18.2035 24.4597 19.2062C24.2279 20.2088 23.815 21.1489 23.246 21.9698C22.9552 22.381 22.6643 22.7923 22.3859 23.2035C21.9925 23.7623 21.7751 24.4485 21.7672 25.1571C21.7668 26.7 21.28 28.1944 20.391 29.3821C19.5019 30.5698 18.2664 31.3762 16.8977 31.6621C16.6816 31.7385 16.4563 31.7778 16.2295 31.7786H8.56337C8.35353 31.7747 8.14514 31.7377 7.94462 31.6689C6.55966 31.4027 5.30386 30.6036 4.39846 29.4125C3.49298 28.2213 2.99592 26.7144 2.99479 25.1571C2.98677 24.4485 2.76947 23.7623 2.37604 23.2035C2.08526 22.7854 1.80064 22.381 1.57168 22.0657C0.498972 20.574 -0.0346249 18.6937 0.0745089 16.7904C0.183724 14.8869 0.927972 13.0966 2.16255 11.7674C3.39705 10.4381 5.03374 9.66509 6.75419 9.59845C8.47473 9.5318 10.1561 10.1764 11.4714 11.4068C11.7219 11.6425 12.0399 11.7719 12.3686 11.7719C12.6972 11.7719 13.0153 11.6425 13.2658 11.4068C14.2096 10.5282 15.3475 9.94393 16.5626 9.71393C17.7778 9.48393 19.0263 9.61655 20.1798 10.0981C21.3334 10.5797 22.3504 11.3929 23.1264 12.4542ZM12.5407 25.6643C15.1255 25.6643 17.2208 23.2942 17.2208 20.3704C17.2208 17.4466 15.1255 15.0766 12.5407 15.0766C9.95602 15.0766 7.86068 17.4466 7.86068 20.3704C7.86068 23.2942 9.95602 25.6643 12.5407 25.6643Z" fill="#36526C"/>
<path d="M4.8075 14.7827C4.63764 14.7854 4.47096 14.7309 4.32891 14.6262C4.18687 14.5216 4.07598 14.3714 4.01065 14.1952C3.94531 14.0191 3.92854 13.825 3.96232 13.6379C3.99618 13.4509 4.07908 13.2796 4.20046 13.146C5.0803 12.1817 6.26141 11.6431 7.49059 11.6458C7.60784 11.6346 7.72579 11.6509 7.83716 11.6936C7.94844 11.7363 8.05066 11.8046 8.1373 11.894C8.22394 11.9835 8.2931 12.0921 8.34047 12.2132C8.38777 12.3342 8.41217 12.4649 8.41217 12.597C8.41217 12.7292 8.38777 12.86 8.34047 12.981C8.2931 13.1019 8.22394 13.2106 8.1373 13.3001C8.05066 13.3894 7.94844 13.4577 7.83716 13.5005C7.72579 13.5432 7.60784 13.5595 7.49059 13.5483C6.70614 13.5519 5.95347 13.8966 5.39022 14.5099C5.23507 14.6827 5.02601 14.7806 4.8075 14.7827Z" fill="#263238"/>
<path d="M3.64103 17.8856C3.4156 17.8856 3.19948 17.785 3.04011 17.6059C2.88073 17.427 2.79115 17.1841 2.79115 16.9309C2.78511 16.8834 2.78511 16.8351 2.79115 16.7876C2.81699 16.5465 2.92358 16.3254 3.08939 16.1695C3.2552 16.0135 3.46775 15.9344 3.68363 15.9484C3.89952 15.9622 4.10253 16.0681 4.25141 16.2443C4.40029 16.4206 4.48375 16.6539 4.48478 16.8968V16.9377C4.48319 17.1885 4.39377 17.4286 4.23591 17.606C4.07797 17.7834 3.86431 17.8838 3.64103 17.8856Z" fill="#263238"/>
<path d="M8.6111 6.40661C8.34204 5.47739 8.29339 4.47762 8.47049 3.51753C8.64767 2.55745 9.04367 1.67434 9.61487 0.965567C9.64579 0.925716 9.68394 0.894716 9.72631 0.874882C9.76875 0.855048 9.81438 0.846891 9.85977 0.851019C10.5869 0.970935 11.2781 1.30224 11.8725 1.81574C12.4669 2.32925 12.9463 3.00921 13.2685 3.7957C13.5907 4.5822 13.7457 5.45111 13.72 6.3259C13.6942 7.20068 13.4884 8.05449 13.1209 8.81211C12.8924 9.26775 12.7392 9.77126 12.6694 10.2955C12.6638 10.34 12.6482 10.3818 12.6241 10.4165C12.6001 10.4511 12.5685 10.4772 12.5328 10.492C12.4972 10.5067 12.4588 10.5096 12.422 10.5002C12.3851 10.4908 12.3511 10.4695 12.3236 10.4387C11.9961 10.0785 11.6127 9.79832 11.195 9.61396C10.5962 9.33231 10.0555 8.89999 9.60954 8.34649C9.16362 7.79299 8.8231 7.13132 8.6111 6.40661Z" fill="#263238"/>
</svg>
